<?xml version="1.0" encoding="utf-8"?>
<!-- Generator: Adobe Illustrator 19.0.0, SVG Export Plug-In . SVG Version: 6.00 Build 0)  -->
<svg version="1.1" id="Layer_1" xmlns="http://www.w3.org/2000/svg" xmlns:xlink="http://www.w3.org/1999/xlink" x="0px" y="0px"
	 width="208px" height="463.5px" viewBox="-4395.8 4479.8 208 463.5" style="enable-background:new -4395.8 4479.8 208 463.5;"
	 xml:space="preserve">
<style type="text/css">
	.st0{display:none;}
	.st1{display:inline;fill:#27176E;}
	.st2{fill:#333333;}
	.st3{fill:#BCBBBB;}
	.st4{fill:#FFFFFF;}
	.st5{display:none;fill:none;stroke:#F40064;stroke-miterlimit:10;}
	.st6{fill:none;stroke:#333333;stroke-width:1.2;stroke-miterlimit:10;}
</style>
<g id="Layer_2" class="st0">
	<rect x="-4395.3" y="4479.6" class="st1" width="586.8" height="126.5"/>
</g>
<g>
	<path class="st2" d="M-4351.3,4485.4c1.6,0,2.8-1.3,2.8-2.8c0-1.6-1.3-2.8-2.8-2.8c-1.6,0-2.8,1.3-2.8,2.8
		C-4354.1,4484-4352.9,4485.4-4351.3,4485.4"/>
	<path class="st2" d="M-4340.7,4493.4c2.8-1.1,3.8-3.6,2.3-5.3c-1.5-1.7-5.4-2.6-8.9-0.4s-4.1,6.5-2.8,8.7c-0.6,0.5-1.3,0.8-1.7,0.8
		s-0.5-0.2-0.6-0.4c-0.1-0.2,0-0.4,0-0.5l2.1-6.3c0.5-1.5-0.7-3.1-2.3-3.1c-1.3,0-2.6,0.8-2.9,2.1c-0.5,1.5-1.2,3.5-1.3,4.9
		c-0.2,0.7-0.2,1.3-0.2,2.1c-0.8,0.9-1.7,1.3-2.3,1.3c-0.4,0-0.5-0.2-0.6-0.4c-0.1-0.2,0-0.4,0-0.5l2-5.9h1.1l1.3-3.5h-1.2l1.1-3.3
		h-3.1c-1.1,2.8-4.5,3.3-4.5,3.3l-1.2,3.5h0.9c-0.4,1.2-0.8,2.5-0.9,3.5c-0.2,0.6-0.2,1.2-0.2,1.8c-0.8,0.9-1.6,1.7-2.1,1.7
		c-0.8,0-0.6-0.8-0.6-0.8l3.2-9.6h-5.5c0,0-0.2,0.7-0.6,1.7c-0.3-0.8-1.1-1.9-2.7-1.9c-2.8,0-5.3,2.9-6.2,5c-0.4,0.9-0.8,2.5-0.8,4
		l-0.4,1.1c-0.1,0.2-0.2,0.3-0.5,0.3c-0.4,0-0.7-0.4-0.5-0.8c0.4-1.3,1.3-3.8,1.7-4.7c0.4-1.3,0.9-5-2.7-5c-2.4,0-4,1.5-4.8,2.6
		c-0.2-1.3-1.1-2.6-3.2-2.6c-5.2,0-5.3,4.7-5.3,4.7l2.1,0.1l0.4-1.3c0.1-0.2,0.2-0.3,0.4-0.3c0.4,0,0.6,0.3,0.5,0.8l-3,8.7l6-0.8
		l1.8-5.5c0,0,0.2-0.6,0.3-1.4c0.5-0.7,1.2-1.3,1.6-1.3c0.7,0.1,0.4,0.8,0.4,0.8s-0.8,2.3-1.4,4.3c-0.6,1.9-0.2,4.4,3.2,4.4
		c2.3,0,3.5-0.8,4.2-1.3c0.5,0.8,1.3,1.3,2.8,1.3c2,0,3.4-1.5,4.4-3.2c0.2,1.8,1,3.2,3.2,3.2c2.1,0,3.7-1,4.4-1.7
		c0.4,1,1.3,1.7,2.8,1.7c2.2,0,3.8-1.1,4.5-1.8c0.4,1.1,1.3,1.8,2.8,1.8c2.2,0,3.8-1.1,4.5-1.8c2,2.1,6.2,3.2,10.4-1.2
		c0.2-0.2,0.2-0.8-0.1-1s-0.7-0.2-0.9,0c-0.8,0.7-2.3,1.9-4.1,1.9c-1.4,0-1.7-1.5-1.4-3.2
		C-4344.8,4494.2-4342.9,4494.1-4340.7,4493.4 M-4373.9,4496c-0.8-0.4,0.2-2.8,0.6-4.1c0.4-1.3,1-2.8,2.1-2.5
		c0.3,0.1,0.4,0.3,0.5,0.6c-0.2,0.4-0.2,0.8-0.4,1.3l-1.5,3.8C-4372.6,4495.1-4373,4496.3-4373.9,4496 M-4341.8,4490.3
		c-0.2,1-1.6,2-3.5,2c0.3-0.7,0.5-1.3,0.8-1.8C-4343.1,4488.6-4341.6,4489.3-4341.8,4490.3"/>
</g>
<g>
	<path class="st3" d="M-4351.3,4545.5c1.6,0,2.8-1.3,2.8-2.8c0-1.6-1.3-2.8-2.8-2.8c-1.6,0-2.8,1.3-2.8,2.8
		C-4354.2,4544.2-4352.9,4545.5-4351.3,4545.5"/>
	<path class="st3" d="M-4340.7,4553.5c2.8-1.1,3.8-3.6,2.3-5.3s-5.4-2.6-9-0.4s-4.1,6.5-2.8,8.7c-0.6,0.5-1.3,0.8-1.7,0.8
		c-0.4,0-0.5-0.3-0.6-0.4c-0.1-0.2,0-0.4,0-0.5l2.1-6.4c0.5-1.5-0.7-3.1-2.3-3.1c-1.3,0-2.6,0.8-2.9,2.1c-0.5,1.5-1.2,3.5-1.3,4.9
		c-0.2,0.7-0.2,1.3-0.2,2.1c-0.8,0.9-1.7,1.3-2.3,1.3c-0.4,0-0.5-0.3-0.6-0.4c-0.1-0.2,0-0.4,0-0.5l2-5.9h1.1l1.3-3.5h-1.2l1.1-3.3
		h-3.1c-1.1,2.8-4.5,3.3-4.5,3.3l-1.2,3.5h0.9c-0.4,1.2-0.8,2.5-0.9,3.5c-0.2,0.6-0.2,1.2-0.2,1.8c-0.8,0.9-1.6,1.7-2.1,1.7
		c-0.8,0-0.6-0.8-0.6-0.8l3.2-9.6h-5.5c0,0-0.3,0.7-0.6,1.7c-0.3-0.8-1.1-1.9-2.7-1.9c-2.8,0-5.3,2.9-6.2,5c-0.4,0.9-0.8,2.5-0.8,4
		l-0.4,1.1c-0.1,0.2-0.3,0.3-0.5,0.3c-0.4,0-0.7-0.4-0.5-0.8c0.4-1.3,1.3-3.8,1.7-4.7c0.4-1.3,0.9-5-2.7-5c-2.4,0-4,1.5-4.8,2.6
		c-0.3-1.3-1.1-2.6-3.2-2.6c-5.2,0-5.4,4.7-5.4,4.7l2.1,0.1l0.4-1.3c0.1-0.2,0.3-0.3,0.4-0.3c0.4,0,0.6,0.3,0.5,0.8l-3,8.7l6-0.8
		l1.8-5.5c0,0,0.2-0.6,0.3-1.4c0.5-0.7,1.2-1.3,1.6-1.3c0.7,0.1,0.4,0.8,0.4,0.8s-0.8,2.3-1.4,4.3c-0.7,1.9-0.2,4.4,3.2,4.4
		c2.3,0,3.5-0.8,4.2-1.3c0.5,0.8,1.3,1.3,2.8,1.3c2,0,3.4-1.5,4.4-3.2c0.2,1.8,1,3.2,3.2,3.2c2.1,0,3.7-1,4.4-1.7
		c0.4,1,1.3,1.7,2.8,1.7c2.2,0,3.8-1.1,4.5-1.8c0.4,1.1,1.3,1.8,2.8,1.8c2.2,0,3.8-1.1,4.5-1.8c2,2.1,6.2,3.2,10.5-1.2
		c0.3-0.3,0.3-0.8-0.1-1c-0.3-0.3-0.7-0.3-0.9,0c-0.8,0.7-2.3,1.9-4.1,1.9c-1.4,0-1.7-1.5-1.4-3.2
		C-4344.8,4554.4-4342.9,4554.3-4340.7,4553.5 M-4374,4556.1c-0.8-0.4,0.2-2.8,0.6-4.1c0.4-1.3,1-2.8,2.1-2.5
		c0.3,0.1,0.4,0.3,0.5,0.6c-0.2,0.4-0.3,0.8-0.4,1.3l-1.5,3.9C-4372.7,4555.3-4373.1,4556.5-4374,4556.1 M-4341.8,4550.4
		c-0.2,1-1.6,2-3.5,2c0.3-0.7,0.5-1.3,0.8-1.8C-4343.1,4548.8-4341.6,4549.4-4341.8,4550.4"/>
</g>
<g>
	<path class="st4" d="M-4351.3,4515.4c1.6,0,2.8-1.3,2.8-2.8c0-1.6-1.3-2.8-2.8-2.8c-1.6,0-2.8,1.3-2.8,2.8
		C-4354.1,4514-4352.9,4515.4-4351.3,4515.4"/>
	<path class="st4" d="M-4340.7,4523.4c2.8-1.1,3.8-3.6,2.3-5.3c-1.5-1.7-5.4-2.6-8.9-0.4s-4.1,6.5-2.8,8.7c-0.6,0.5-1.3,0.8-1.7,0.8
		s-0.5-0.2-0.6-0.4c-0.1-0.2,0-0.4,0-0.5l2.1-6.3c0.5-1.5-0.7-3.1-2.3-3.1c-1.3,0-2.6,0.8-2.9,2.1c-0.5,1.5-1.2,3.5-1.3,4.9
		c-0.2,0.7-0.2,1.3-0.2,2.1c-0.8,0.9-1.7,1.3-2.3,1.3c-0.4,0-0.5-0.2-0.6-0.4c-0.1-0.2,0-0.4,0-0.5l2-5.9h1.1l1.3-3.5h-1.2l1.1-3.3
		h-3.1c-1.1,2.8-4.5,3.3-4.5,3.3l-1.2,3.5h0.9c-0.4,1.2-0.8,2.5-0.9,3.5c-0.2,0.6-0.2,1.2-0.2,1.8c-0.8,0.9-1.6,1.7-2.1,1.7
		c-0.8,0-0.6-0.8-0.6-0.8l3.2-9.6h-5.5c0,0-0.2,0.7-0.6,1.7c-0.3-0.8-1.1-1.9-2.7-1.9c-2.8,0-5.3,2.9-6.2,5c-0.4,0.9-0.8,2.5-0.8,4
		l-0.4,1.1c-0.1,0.2-0.2,0.3-0.5,0.3c-0.4,0-0.7-0.4-0.5-0.8c0.4-1.3,1.3-3.8,1.7-4.7c0.4-1.3,0.9-5-2.7-5c-2.4,0-4,1.5-4.8,2.6
		c-0.2-1.3-1.1-2.6-3.2-2.6c-5.2,0-5.3,4.7-5.3,4.7l2.1,0.1l0.4-1.3c0.1-0.2,0.2-0.3,0.4-0.3c0.4,0,0.6,0.3,0.5,0.8l-3,8.7l6-0.8
		l1.8-5.5c0,0,0.2-0.6,0.3-1.4c0.5-0.7,1.2-1.3,1.6-1.3c0.7,0.1,0.4,0.8,0.4,0.8s-0.8,2.3-1.4,4.3c-0.7,1.9-0.2,4.4,3.2,4.4
		c2.3,0,3.5-0.8,4.2-1.3c0.5,0.8,1.3,1.3,2.8,1.3c2,0,3.4-1.5,4.4-3.2c0.2,1.8,1,3.2,3.2,3.2c2.1,0,3.7-1,4.4-1.7
		c0.4,1,1.3,1.7,2.8,1.7c2.2,0,3.8-1.1,4.5-1.8c0.4,1.1,1.3,1.8,2.8,1.8c2.2,0,3.8-1.1,4.5-1.8c2,2.1,6.2,3.2,10.4-1.2
		c0.3-0.2,0.3-0.8-0.1-1c-0.3-0.2-0.7-0.2-0.9,0c-0.8,0.7-2.3,1.9-4.1,1.9c-1.4,0-1.7-1.5-1.4-3.2
		C-4344.8,4524.2-4342.9,4524.1-4340.7,4523.4 M-4373.9,4526c-0.8-0.4,0.2-2.8,0.6-4.1c0.4-1.3,1-2.8,2.1-2.5
		c0.3,0.1,0.4,0.3,0.5,0.6c-0.2,0.4-0.2,0.8-0.4,1.3l-1.5,3.8C-4372.6,4525.1-4373,4526.3-4373.9,4526 M-4341.8,4520.3
		c-0.2,1-1.6,2-3.5,2c0.2-0.7,0.5-1.3,0.8-1.8C-4343.1,4518.6-4341.6,4519.3-4341.8,4520.3"/>
</g>
<g>
	<g>
		<g>
			<path class="st2" d="M-4392.4,4752.2l-0.7-0.7c32.6-30.2,46.4-69.9,52.3-97.9c6.4-30.3,5.1-53.7,5.1-54l1-0.1
				c0,0.2,1.3,23.8-5.1,54.2C-4345.7,4681.9-4359.7,4721.8-4392.4,4752.2z"/>
		</g>
	</g>
	<g>
		<g>
			<g>
				<path class="st2" d="M-4392.5,4751.5c1.5,0,3.3,1.2,4.3,2.2c-2.4-0.4-4.9-0.4-7.2,0.5c1-2.2,1.1-4.7,0.9-7.1
					C-4393.5,4748.3-4392.5,4749.9-4392.5,4751.5z"/>
			</g>
		</g>
	</g>
</g>
<g>
	<g>
		<path class="st2" d="M-4298.7,4666.6c-17.3-52.2,18.4-86.9,18.7-87.2l0.7,0.7c-0.4,0.3-35.6,34.6-18.5,86.2L-4298.7,4666.6z"/>
	</g>
	<g>
		<g>
			<path class="st2" d="M-4298.3,4666c0.7-1.3,2.4-2.5,3.8-3c-1.4,2-2.3,4.3-2.5,6.7c-1.6-1.8-3.8-3-6.1-3.8
				C-4301.6,4665.6-4299.7,4665.3-4298.3,4666z"/>
		</g>
	</g>
</g>
<g>
	<g>
		<path class="st2" d="M-4261.3,4674.8l-0.2-1c31.6-7,49.7-32.2,59.3-52.1c10.4-21.6,13.3-41.9,13.4-42.1l1,0.1
			c0,0.2-3,20.6-13.4,42.3C-4211,4642.2-4229.3,4667.7-4261.3,4674.8z"/>
	</g>
	<g>
		<g>
			<path class="st2" d="M-4260.9,4674.2c1.2,0.8,2.2,2.7,2.5,4.1c-1.8-1.6-4-2.8-6.4-3.3c2-1.4,3.4-3.5,4.5-5.6
				C-4260.1,4670.9-4260.1,4672.8-4260.9,4674.2z"/>
		</g>
	</g>
</g>
<circle class="st5" cx="-4307.4" cy="4744.6" r="4"/>
<circle class="st5" cx="-4307.4" cy="4899.6" r="4"/>
<g>
	<g>
		<g>
			<path class="st2" d="M-4319.9,4935.6c0.5-1.4,2-2.8,3.3-3.5c-1.1,2.2-1.7,4.6-1.5,7c-1.8-1.6-4.2-2.4-6.6-2.9
				C-4323.3,4935.6-4321.4,4935.1-4319.9,4935.6z"/>
		</g>
	</g>
	<path class="st6" d="M-4295.5,4706.5c0,0-85.9,93.7-24.4,228.9"/>
</g>
<g>
	<g>
		<path class="st2" d="M-4294.1,4544.4c-1-1.1-1.6-3.1-1.6-4.6c1.4,2,3.3,3.6,5.5,4.6c-2.2,0.9-4.1,2.6-5.6,4.5
			C-4295.6,4547.4-4295.2,4545.5-4294.1,4544.4z"/>
	</g>
</g>
</svg>
